<?xml version="1.0" encoding="UTF-8" standalone="no"?>
<svg xmlns="http://www.w3.org/2000/svg" xmlns:xlink="http://www.w3.org/1999/xlink" version="1.1" width="700" height="700" viewBox="610 108.5 700 700"><g fill="none" fill-rule="nonzero" stroke="none" stroke-width="none" stroke-linecap="none" stroke-linejoin="none" stroke-miterlimit="10" font-family="none" font-weight="none" font-size="none"><g id="stage"><g id="layer1-1"><g id="Group-1" fill="#000000" stroke="none" stroke-width="1" stroke-linecap="butt" stroke-linejoin="miter"><path d="M1205.81944,288.0141c-3.97522,18.00565 -14.95306,30.24735 -29.79602,39.45774c-22.22815,13.79309 -45.17355,26.36166 -67.79794,39.47845c-3.42526,1.98584 -6.87481,3.92975 -10.13702,6.20499c37.96884,-17.89114 79.38278,-29.38074 111.11154,-61.25101c1.39624,9.24707 0.33954,16.8768 -2.52472,24.11829c-6.16797,15.59369 -16.88892,27.17147 -32.59882,33.29699c-25.599,9.9812 -51.39468,19.45798 -77.10614,29.15079c-1.98969,0.75009 -3.97012,1.52475 -5.84182,2.61725c35.49701,-10.28195 72.8096,-14.43765 105.57974,-32.37488c2.48663,2.14743 1.44171,3.98001 0.92584,5.60864c-6.6416,20.96786 -20.75397,33.69404 -42.3844,37.74488c-21.26959,3.98325 -42.59302,7.67855 -63.88907,11.52093c-0.6105,0.11014 -1.17877,0.45465 -1.71576,0.96573c28.11343,-1.62784 56.28867,-1.87551 85.1749,-6.75088c-2.8172,9.20319 -7.59339,15.60925 -14.22162,20.47848c-8.09723,5.9484 -17.18646,9.42518 -27.46957,9.06754c-20.0889,-0.69861 -40.17908,-1.35925 -60.29065,-1.86612c23.9631,3.25317 47.53793,8.99136 72.62796,10.05829c-2.6322,6.2344 -6.63062,9.77615 -10.90186,12.79498c-9.38635,6.63419 -19.5509,9.26303 -31.16296,6.2474c-15.45111,-4.01267 -31.09039,-7.30075 -46.72244,-10.75653c18.71848,7.99768 37.80981,15.11728 56.70733,22.10083c-0.03357,2.62878 -1.56894,3.48081 -2.83145,4.53269c-11.67627,9.72842 -24.4432,12.26254 -38.61581,5.96579c-9.53409,-4.2359 -19.11389,-8.36902 -28.78659,-12.35504c10.33093,9.09021 22.02843,16.30392 34.23397,24.76205c-8.0723,5.03256 -15.43439,8.59915 -24.39206,7.68057c-8.77417,-0.89972 -14.57867,-7.98471 -23.49752,-11.7698c2.10501,9.04013 10.10883,12.65561 12.81714,19.84976c-6.51108,3.85168 -13.02573,3.04138 -19.29761,0.41766c-3.7605,-1.57312 -6.02002,-1.1607 -8.36371,2.25507c-2.24533,3.27234 -5.00223,6.27563 -7.91989,8.98138c-2.82983,2.62433 -2.37808,4.667 -0.56711,7.72443c10.52734,17.77307 20.81079,35.69055 31.16064,53.56854c0.65887,1.13818 1.39966,2.29016 1.04181,4.20209c-6.01035,3.08746 -12.9697,4.16455 -19.55362,6.25952c-3.38483,1.07696 -5.31281,2.64142 -6.35321,6.09937c-1.77289,5.89239 -4.12902,11.60674 -6.1152,17.43847c-1.03986,3.05304 -2.78387,3.78748 -5.72229,2.52967c-3.67374,-1.57251 -7.5278,-2.7461 -11.12875,-4.46009c-3.39444,-1.61572 -5.4806,-0.63824 -7.5698,2.22431c-4.61395,6.32202 -9.54293,12.41314 -14.21716,18.69244c-2.20129,2.95727 -4.02619,2.87781 -6.20722,0.01764c-4.9508,-6.49237 -10.1167,-12.8233 -14.96591,-19.38922c-1.94989,-2.6402 -3.8992,-3.24579 -6.78131,-1.80182c-3.27484,1.64056 -6.7522,2.89978 -9.94171,4.68231c-4.18301,2.33783 -6.27924,1.1446 -7.62738,-3.27679c-1.69815,-5.56928 -4.05872,-10.93689 -5.74817,-16.50836c-0.98761,-3.25702 -2.77218,-4.94068 -6.02148,-5.79395c-5.63284,-1.47913 -11.14271,-3.42053 -16.75251,-4.99573c-3.67404,-1.03162 -4.34524,-2.51831 -2.30465,-6.02563c10.30423,-17.71094 20.27676,-35.61487 30.59585,-53.31702c2.14578,-3.68097 2.17701,-6.37189 -1.27798,-8.92163c-0.26483,-0.19543 -0.50776,-0.44379 -0.69965,-0.71143c-5.49457,-7.66357 -11.61118,-12.29614 -21.75876,-7.22412c-3.83508,1.91687 -8.74258,0.39704 -13.31515,-1.95733c3.71991,-7.14227 10.74692,-11.5882 13.48245,-18.84125c-2.22055,-1.58658 -3.30121,-0.09256 -4.45535,0.64188c-3.51209,2.23502 -6.83652,4.78879 -10.45212,6.83267c-10.04079,5.67597 -25.3795,3.42352 -33.2943,-5.24112c11.74683,-8.10724 23.41864,-16.16269 35.09047,-24.21814c-0.12933,-0.24628 -0.25864,-0.49255 -0.38794,-0.73883c-9.33377,4.10791 -18.73315,8.074 -27.98611,12.3565c-14.32669,6.63077 -27.76896,5.71479 -40.34248,-4.13647c-1.0443,-0.81821 -2.0334,-1.72272 -2.95024,-2.68085c-0.43512,-0.45468 -0.63932,-1.13037 -1.43868,-2.62018c20.36934,-7.22717 40.12822,-15.30112 59.84345,-23.54428c-16.06287,3.9866 -32.13202,7.94803 -48.18665,11.96762c-13.14943,3.29224 -25.11912,0.78504 -35.88954,-7.32888c-3.60245,-2.71393 -6.63788,-6.00449 -8.49204,-11.49814c24.55046,-1.70468 48.1751,-6.85849 72.10222,-10.38184c-9.41832,0.81906 -18.84903,0.33628 -28.26779,0.81351c-11.64098,0.58981 -23.31976,1.78891 -34.92859,1.3396c-17.2852,-0.66898 -30.38188,-8.90339 -38.19766,-24.73618c-0.5764,-1.16763 -1.40996,-2.32449 -0.09773,-4.60238c28.25755,5.74942 57.43565,4.41094 86.49784,6.08935c-5.32976,-0.8331 -10.67094,-1.59952 -15.98722,-2.51117c-19.19817,-3.29239 -38.52368,-6.00701 -57.5439,-10.12716c-20.30646,-4.39874 -32.72727,-18.15604 -39.51222,-37.34632c-0.46955,-1.32806 -1.1813,-2.80939 0.27252,-5.32437c31.41157,17.37454 67.00556,20.94787 101.3081,29.34448c-4.977,-1.84534 -9.91699,-3.7988 -14.93748,-5.51706c-20.64174,-7.06473 -41.3133,-14.04477 -61.66068,-21.93393c-23.29092,-9.03039 -37.79977,-28.72808 -38.22358,-51.86404c-0.02953,-1.6123 -0.47936,-3.32062 1.1603,-5.55319c14.45598,13.72333 30.70116,24.71264 48.86724,32.75207c17.96558,7.95071 35.98512,15.77057 54.67601,22.28125c-5.29453,-3.04666 -10.59733,-6.07903 -15.8821,-9.14251c-19.88612,-11.5275 -40.68506,-21.49439 -59.84933,-34.23514c-15.94499,-10.60049 -25.89093,-25.30273 -27.15413,-44.87448c-0.32491,-5.03427 -0.45828,-10.28595 1.55197,-15.04123c1.55373,-0.29614 2.18332,0.54922 2.68713,1.39892c9.97488,16.82251 24.82797,28.59952 40.91759,38.89951c38.2375,24.47809 78.28415,45.58557 120.08035,63.33606c2.73799,1.16278 4.02379,2.80353 4.76302,5.72678c4.05051,16.01746 14.81839,25.50421 30.20807,30.35495c4.09387,1.29034 7.32809,0.54406 10.29449,-2.76383c4.20227,-4.68594 7.88743,-9.46332 8.0351,-16.13788c0.0687,-3.10641 -1.22501,-5.01968 -4.17984,-5.98156c-3.55121,-1.15604 -7.17765,-1.26462 -10.8635,-1.23151c-4.47086,0.04016 -4.51846,4.89203 -7.28955,6.70764c-6.97568,-6.29257 -6.92114,-19.78162 0.01776,-27.18918c3.39331,-3.6225 7.59293,-5.90085 12.40921,-7.08447c2.0849,-0.51242 4.42008,-0.68869 5.77427,-2.63556c5.4187,-7.78998 13.53384,-9.00134 22.08728,-9.21219c10.48712,-0.25851 20.41995,2.75995 30.43084,5.23694c5.20834,1.2887 10.41889,2.09393 15.80329,2.01001c4.60117,-0.07172 5.37414,1.42517 2.91632,5.38867c-1.04608,1.68689 -2.18326,3.47696 -3.70722,4.67584c-3.58267,2.81851 -2.8887,4.98541 -0.05935,8.05066c7.4819,8.1059 12.92215,17.6051 17.77362,26.96881c-0.85812,2.33481 -2.94175,1.61158 -4.19001,3.04444c0.94623,3.06528 2.69401,5.85718 4.70191,8.47525c1.21802,1.58817 2.88156,2.11649 4.89545,1.36777c14.3317,-5.32825 24.69198,-14.49677 27.94787,-29.97315c0.77798,-3.69821 2.17554,-5.71781 5.55557,-7.36298c40.32452,-19.62701 79.90607,-40.62536 116.99961,-65.95397c13.70184,-9.35605 25.80249,-20.5499 34.09912,-35.27625c0.32275,-0.57297 0.76123,-1.09424 1.2157,-1.57333c0.20374,-0.21481 0.58014,-0.26578 1.52966,-0.66504c2.4483,7.74466 2.85736,15.44302 1.32928,23.73028M983.25954,364.87329c-2.26486,-2.30823 -5.56821,-3.53558 -7.20426,-6.52053c1.78165,-2.77155 5.68812,-1.42905 7.32795,-4.56501c-5.92102,-2.02975 -11.86158,-3.34228 -17.85447,-4.45428c-8.85404,-1.64291 -17.70373,-3.32441 -26.63156,-0.38306c-6.09286,2.00738 -6.94287,4.4589 -3.97003,10.0055c2.78165,5.18985 8.22403,6.55157 12.62988,9.35723c7.34857,4.67969 7.43238,4.53919 0.49009,9.09235c-0.19858,0.13022 -0.18137,0.58935 -0.30744,1.05151c3.90408,3.70905 7.55381,7.67624 7.8566,14.07407c-4.12506,-1.45252 -5.80777,-6.15341 -10.49573,-6.14767c-0.29819,4.85428 1.19894,9.93396 -2.4386,14.58978c-2.08752,-3.19827 -0.95801,-7.08191 -3.8179,-9.78006c-2.25699,4.19781 -4.42932,8.23819 -6.8146,12.67459c3.56161,0.85013 2.25766,4.24058 3.36334,6.29102c4.84546,0.33145 7.28049,-4.71238 11.95035,-4.86692c0.27277,2.36899 0.51013,4.43049 0.75,6.51386c5.47259,-0.431 6.50601,-6.03647 10.27517,-8.21967c3.151,2.85013 2.35886,8.05609 6.57718,9.78528c4.43863,-2.69376 4.72784,-7.9357 7.46469,-11.52881c3.44708,1.30386 2.26395,5.18994 4.41141,6.96277c3.58527,-1.6842 2.88122,-6.26751 5.82394,-8.55145c3.1535,1.55716 4.29004,5.86032 8.18192,5.84323c1.65951,-2.34476 -0.35794,-4.83066 0.84659,-6.98645c2.56323,-0.95529 4.449,2.44989 7.65161,0.76239c-3.41287,-8.74259 -10.22973,-15.48373 -15.13928,-23.36801c3.35019,-1.48447 5.18729,2.49106 8.11722,0.17279c-1.67337,-4.65112 -5.53891,-7.67792 -9.04407,-11.80445M948.86165,458.56394c0.03912,26.98062 0.12134,53.96139 0.06183,80.94174c-0.00729,3.30237 0.91195,5.53986 3.69473,7.53833c11.45291,8.22516 11.39017,8.31256 23.06824,0.16516c0.1366,-0.09528 0.26633,-0.20312 0.41138,-0.28308c3.24402,-1.78876 4.49389,-4.44519 4.41934,-8.21552c-0.19098,-9.65588 -0.04099,-19.31829 -0.04224,-28.97814c-0.00299,-23.15033 -0.09439,-46.30113 0.04636,-69.45054c0.02728,-4.4881 -1.42087,-6.31555 -6.04618,-6.1138c-6.3161,0.27554 -12.66635,0.26752 -18.97976,-0.05432c-4.88089,-0.24887 -7.02527,1.26755 -6.6821,6.46781c0.37207,5.6373 0.06161,11.31967 0.0484,17.98236M910.55889,434.25232c-3.16275,0.24765 -2.82691,2.65424 -3.01087,4.79886c-0.92667,10.80359 -0.06046,21.64606 -0.62793,32.44452c-1.29544,24.65189 9.83548,43.58352 26.99793,59.8345c1.12994,1.06995 2.18835,2.5409 4.12301,2.17878c0.12726,-0.40167 0.31339,-0.71577 0.31412,-1.03022c0.07278,-31.3237 0.11337,-62.64745 0.21823,-93.971c0.01102,-3.29456 -1.55441,-4.35175 -4.6181,-4.3191c-7.49716,0.07999 -14.99591,0.01047 -23.39639,0.06366M1022.4457,437.96726c0.11707,-3.2677 -1.9513,-3.75565 -4.58417,-3.73441c-6.16089,0.04971 -12.32261,0.02732 -18.48383,0.00345c-7.9856,-0.03091 -8.50912,0.40127 -8.5206,8.44415c-0.04031,28.30753 -0.03582,56.61511 -0.00448,84.9227c0.00174,1.57599 -0.53821,3.36932 1.02691,4.65625c2.13223,0.08618 3.33527,-1.43658 4.54996,-2.73101c3.52856,-3.7605 7.27826,-7.37714 10.34757,-11.49286c9.53192,-12.78168 16.28967,-26.56845 15.71234,-43.18808c-0.41599,-11.97443 -0.04632,-23.97617 -0.0437,-36.88019M975.23055,605.69287c-1.02624,-9.40021 -1.99704,-18.80707 -3.10974,-28.19702c-0.3732,-3.14954 -1.71992,-5.20544 -5.28971,-3.03198c-1.49655,0.91113 -3.03037,1.47291 -4.67441,0.47614c-4.62061,-2.80139 -5.93066,-0.1778 -6.16415,3.84472c-0.60638,10.44659 -1.83029,20.8269 -2.98422,31.22052c-0.32483,2.92566 -1.9632,6.12989 -0.56562,8.80921c3.04089,5.82971 7.3194,10.82098 12.00266,15.78155c7.5625,-8.37219 15.00971,-15.96033 10.78519,-28.90314M934.61952,618.33051c3.28992,-1.38129 6.7887,-2.07818 7.30628,-6.90515c1.55499,-14.50238 3.5531,-28.95691 5.32852,-43.43628c0.23816,-1.94226 0.70654,-4.27222 -1.8465,-5.07074c-2.95032,-0.92279 -3.66348,1.58631 -4.4425,3.53998c-4.117,10.32507 -7.64255,20.9259 -12.40668,30.93939c-3.34235,7.02515 -2.05136,12.98615 0.77087,19.42035c1.11478,2.54144 2.49924,2.71435 5.29001,1.51245M997.21446,590.82148c-3.38901,-8.48523 -6.75619,-16.97931 -10.18936,-25.44666c-0.54584,-1.34625 -1.1286,-2.96069 -3.13907,-2.53003c-1.83456,0.39294 -2.95772,1.5542 -2.93148,3.48767c0.02011,1.48364 0.20956,2.97168 0.41424,4.44519c1.75839,12.65997 4.03077,25.27595 5.09342,37.99323c0.49991,5.98273 3.13275,8.51441 8.21478,10.05176c2.3447,0.70935 3.58481,0.36157 4.64905,-2.01673c2.86102,-6.39325 4.89904,-12.65887 0.72451,-19.32806c-1.13068,-1.80627 -1.71008,-3.95764 -2.83609,-6.65637M1009.94301,574.09949c-4.27307,-7.56415 -8.54612,-15.1283 -12.80469,-22.66681c-4.28565,1.87439 -3.41357,4.36115 -2.3432,6.95673c4.42548,10.73132 8.85614,21.46069 13.2189,32.21759c3.13767,7.73627 5.48746,8.46912 12.97742,3.67554c-2.98447,-6.80817 -6.89551,-13.14313 -11.04843,-20.18305M921.59215,587.65644c4.09348,-10.15949 8.20749,-20.31079 12.26047,-30.48639c0.68268,-1.71399 1.30737,-3.77838 -0.75156,-4.88794c-2.12097,-1.14307 -2.9226,0.96588 -3.68188,2.30786c-7.19238,12.71185 -14.32294,25.45867 -21.43537,38.21551c-0.29101,0.52191 -0.22573,1.24243 -0.3139,1.79236c7.74469,4.48358 9.78811,3.82514 12.72128,-3.92065c0.29382,-0.77594 0.60843,-1.544 1.20096,-3.02075M927.28041,358.52729c-9.59055,-0.54245 -17.50643,6.04595 -15.81759,13.811c8.1583,-4.01422 16.83013,-3.62314 25.73733,-3.02121c-4.08847,-2.8197 -6.72604,-6.57278 -9.91974,-10.78979z" id="CompoundPath-1"/><path d="M942.13475,359.51801c-1.09625,-1.18161 -2.61099,-1.69071 -2.10046,-3.96448c6.63678,-1.81442 13.51367,-2.74191 20.6868,-1.47006c-2.93359,2.3786 -5.68595,4.57831 -8.29212,7.08469c-3.30832,3.18161 -7.02289,1.68948 -10.29422,-1.65015z" id="Path-1"/><path d="M951.62712,521.06079c-0.00177,-4.66199 0.01633,-8.82696 -0.02786,-12.99121c-0.03982,-3.75345 2.3309,-4.21337 5.32834,-4.20153c2.91147,0.01147 4.85074,0.7391 4.81778,4.15786c-0.06262,6.49625 -0.02103,12.99412 0.03393,19.49076c0.01688,1.9942 -0.06786,4.49993 2.70588,4.4649c2.49054,-0.03149 3.72308,-1.96765 3.71295,-4.47009c-0.03644,-8.98712 -0.06183,-17.97461 -0.17862,-26.96079c-0.03925,-3.02179 -1.52979,-5.43719 -3.88819,-7.24078c-9.51523,-7.27676 -14.40676,-16.17166 -12.18194,-28.7399c1.0828,-6.1167 0.11218,-12.62174 -0.15271,-18.94162c-0.13095,-3.12375 0.84988,-4.74545 4.14343,-4.71655c5.99664,0.05264 11.99515,0.08166 17.99075,-0.01383c3.23261,-0.05148 4.55054,1.51697 4.48471,4.56244c-0.15121,6.99033 -0.26327,13.98203 -0.48678,20.9701c-0.13126,4.10403 -3.37445,2.76211 -5.61072,2.94116c-2.31909,0.1857 -4.38733,-0.09406 -4.2431,-3.33411c0.16287,-3.65897 0.08941,-7.328 0.15344,-10.99203c0.03998,-2.2894 -0.55878,-3.94993 -3.29761,-3.90476c-2.75287,0.04544 -3.2366,1.83966 -3.23086,4.04495c0.01556,5.99716 0.0877,11.99479 0.03558,17.99131c-0.02246,2.58237 1.08121,4.63799 3.01059,6.02691c11.61887,8.36426 15.01083,19.72306 13.28964,33.521c-0.73355,5.88049 0.08664,11.96435 0.31659,17.95129c0.11096,2.88922 -0.62124,5.25141 -3.17004,6.85474c-0.70407,0.44287 -1.36377,0.956 -2.0484,1.43018c-10.112,7.00372 -6.8465,7.47094 -17.68457,0.02227c-2.98288,-2.05011 -4.1926,-4.44586 -3.97864,-7.93243c0.19363,-3.15546 0.11038,-6.32789 0.15643,-9.99024z" id="Path-1-1"/><path d="M919.6367,475.00635c-7.76968,-5.51874 -10.05264,-12.61114 -9.4443,-21.74734c0.93137,-13.98752 -1.63434,-12.19416 12.31534,-12.3151c13.42841,-0.11642 13.47553,-0.05823 13.3732,13.1651c-0.02796,3.60968 0.5184,7.27839 -0.44208,10.82447c-7.16211,-0.03665 -9.06875,-1.75833 -9.11801,-8.01645c-0.00922,-1.16583 -0.04678,-2.33161 -0.04416,-3.49735c0.0051,-2.29953 -1.42499,-2.66818 -3.32752,-2.64557c-1.74686,0.02078 -2.88946,0.51035 -2.99652,2.48026c-0.29205,5.37415 -0.69742,10.74997 4.59537,14.34735c9.81158,6.66861 12.97104,15.87161 11.47638,27.51312c-0.86246,6.71738 -0.11466,13.63907 -0.13501,20.46866c-0.00476,1.59906 0.29562,3.28784 -0.85123,5.04315c-3.83072,-1.35785 -5.68738,-4.70581 -7.84732,-7.42145c-4.7634,-5.98898 -8.96969,-12.41769 -13.63226,-18.49118c-4.10956,-5.35312 -3.06473,-11.1886 -2.70917,-17.12097c6.23401,0.44336 8.63123,2.6728 9.00763,7.952c0.31961,4.48267 0.7221,5.18515 6.10916,10.3295c0.61868,-7.95822 1.88834,-15.58021 -6.3295,-20.8682z" id="Path-1-2"/><path d="M993.34514,499.15177c0.01001,-9.78757 1.07647,-11.22077 8.81735,-12.26444c1.70178,2.22827 -0.23565,5.34903 1.74164,7.51999c5.60187,-2.07559 6.12558,-7.77115 4.61285,-17.17633c-3.79459,-0.6246 -6.98748,1.31839 -10.25915,2.71527c-3.4704,1.48163 -4.91522,0.60184 -4.87195,-3.25772c0.11395,-10.15701 0.14811,-20.31687 0.02753,-30.47339c-0.04202,-3.53964 1.19168,-5.29779 4.86746,-5.25537c5.66071,0.06534 11.3234,-0.04822 16.98459,-0.004c0.95184,0.00742 2.53332,0.16816 2.75091,0.6984c1.8223,4.44031 0.81089,9.1213 0.72849,13.70648c-0.0452,2.51492 -2.44086,2.90454 -4.27591,3.55963c-3.16922,1.13138 -5.20502,0.52634 -5.09952,-3.43216c0.05243,-1.9671 0.18983,-4.27744 -2.85055,-4.22397c-2.94183,0.05173 -2.97128,2.28376 -2.8515,4.2837c0.23352,3.89923 -0.82346,7.92172 0.97039,12.14749c4.41537,-1.05954 8.69916,-2.0875 14.10761,-3.38535c-1.16217,11.73428 3.483,23.21744 -5.00116,33.44757c-5.2999,6.39056 -9.6829,13.53857 -15.51673,19.52301c-1.12286,1.15185 -1.97601,2.7229 -4.88278,3.00946c0,-6.94183 0,-13.7972 0.00043,-21.13827z" id="Path-1-3"/></g><path d="M950.77033,598.62553h26.39338" id="Path-1-4" fill-opacity="0" fill="#000000" stroke="#000000" stroke-width="3" stroke-linecap="round" stroke-linejoin="round"/><path d="M953.78896,598.62553h25.19624" id="Path-1-5" fill-opacity="0" fill="#000000" stroke="#000000" stroke-width="7" stroke-linecap="round" stroke-linejoin="round"/></g></g></g></svg>