<svg version="1.1" id="Layer_1" xmlns="http://www.w3.org/2000/svg" xmlns:xlink="http://www.w3.org/1999/xlink" x="0px" y="0px"
	 width="100%" viewBox="0 0 672 1024" enable-background="new 0 0 672 1024" xml:space="preserve">
<path fill="#000000" opacity="1.000000" stroke="none" 
	d="
M584.251099,290.950195 
	C580.275879,308.955841 569.298035,321.197540 554.455078,330.407928 
	C532.226929,344.201019 509.281525,356.769592 486.657135,369.886383 
	C483.231873,371.872223 479.782318,373.816132 476.520111,376.091370 
	C514.488953,358.200226 555.902893,346.710632 587.631653,314.840363 
	C589.027893,324.087433 587.971191,331.717163 585.106934,338.958649 
	C578.938965,354.552338 568.218018,366.130127 552.508118,372.255646 
	C526.909119,382.236847 501.113434,391.713623 475.401978,401.406433 
	C473.412292,402.156525 471.431854,402.931183 469.560150,404.023682 
	C505.057159,393.741730 542.369751,389.586029 575.139893,371.648804 
	C577.626526,373.796234 576.581604,375.628815 576.065735,377.257446 
	C569.424133,398.225311 555.311768,410.951477 533.681335,415.002319 
	C512.411743,418.985565 491.088318,422.680878 469.792267,426.523254 
	C469.181763,426.633392 468.613495,426.977905 468.076508,427.488983 
	C496.189941,425.861145 524.365173,425.613464 553.251404,420.738098 
	C550.434204,429.941284 545.658020,436.347351 539.029785,441.216583 
	C530.932556,447.164978 521.843323,450.641754 511.560211,450.284119 
	C491.471313,449.585510 471.381134,448.924866 451.269562,448.417999 
	C475.232666,451.671173 498.807495,457.409363 523.897522,458.476288 
	C521.265320,464.710693 517.266907,468.252441 512.995667,471.271271 
	C503.609314,477.905457 493.444763,480.534302 481.832703,477.518677 
	C466.381592,473.506012 450.742310,470.217926 435.110260,466.762146 
	C453.828735,474.759827 472.920074,481.879425 491.817596,488.862976 
	C491.784027,491.491760 490.248657,492.343781 488.986145,493.395660 
	C477.309875,503.124084 464.542938,505.658203 450.370331,499.361450 
	C440.836243,495.125549 431.256439,490.992432 421.583740,487.006409 
	C431.914673,496.096619 443.612183,503.310333 455.817719,511.768463 
	C447.745422,516.801025 440.383331,520.367615 431.425659,519.449036 
	C422.651489,518.549316 416.846985,511.464325 407.928131,507.679230 
	C410.033142,516.719360 418.036957,520.334839 420.745270,527.528992 
	C414.234192,531.380676 407.719543,530.570374 401.447662,527.946655 
	C397.687164,526.373535 395.427643,526.785950 393.083954,530.201721 
	C390.838623,533.474060 388.081726,536.477356 385.164062,539.183105 
	C382.334229,541.807434 382.785980,543.850098 384.596954,546.907532 
	C395.124298,564.680603 405.407745,582.598083 415.757599,600.476074 
	C416.416473,601.614258 417.157257,602.766235 416.799408,604.678162 
	C410.789062,607.765625 403.829712,608.842712 397.245789,610.937683 
	C393.860962,612.014648 391.932983,613.579102 390.892578,617.037048 
	C389.119690,622.929443 386.763550,628.643799 384.777374,634.475525 
	C383.737518,637.528564 381.993500,638.263000 379.055084,637.005188 
	C375.381348,635.432678 371.527283,634.259094 367.926331,632.545105 
	C364.531891,630.929382 362.445740,631.906860 360.356537,634.769409 
	C355.742584,641.091431 350.813599,647.182556 346.139374,653.461853 
	C343.938080,656.419128 342.113190,656.339661 339.932159,653.479492 
	C334.981354,646.987122 329.815460,640.656189 324.966248,634.090271 
	C323.016357,631.450073 321.067047,630.844482 318.184937,632.288452 
	C314.910095,633.929016 311.432739,635.188232 308.243225,636.970764 
	C304.060211,639.308594 301.963989,638.115356 300.615845,633.693970 
	C298.917694,628.124695 296.557129,622.757080 294.867676,617.185608 
	C293.880066,613.928589 292.095490,612.244934 288.846191,611.391663 
	C283.213348,609.912537 277.703491,607.971130 272.093689,606.395935 
	C268.419647,605.364319 267.748444,603.877625 269.789032,600.370300 
	C280.093262,582.659363 290.065796,564.755432 300.384888,547.053284 
	C302.530670,543.372314 302.561890,540.681396 299.106903,538.131653 
	C298.842072,537.936218 298.599152,537.687866 298.407257,537.420227 
	C292.912689,529.756653 286.796082,525.124084 276.648499,530.196106 
	C272.813416,532.112976 267.905914,530.593140 263.333344,528.238770 
	C267.053253,521.096497 274.080261,516.650574 276.815796,509.397522 
	C274.595245,507.810944 273.514587,509.304962 272.360443,510.039398 
	C268.848358,512.274414 265.523926,514.828186 261.908325,516.872070 
	C251.867538,522.548035 236.528824,520.295593 228.614029,511.630951 
	C240.360855,503.523712 252.032669,495.468262 263.704498,487.412811 
	C263.575165,487.166534 263.445862,486.920258 263.316559,486.673981 
	C253.982788,490.781891 244.583405,494.747986 235.330444,499.030487 
	C221.003754,505.661255 207.561478,504.745270 194.987961,494.894012 
	C193.943665,494.075806 192.954559,493.171295 192.037720,492.213165 
	C191.602600,491.758484 191.398407,491.082794 190.599045,489.592987 
	C210.968384,482.365814 230.727264,474.291870 250.442490,466.048706 
	C234.379623,470.035309 218.310471,473.996735 202.255844,478.016327 
	C189.106415,481.308563 177.136719,478.801361 166.366302,470.687439 
	C162.763855,467.973511 159.728424,464.682953 157.874268,459.189301 
	C182.424728,457.484619 206.049362,452.330811 229.976486,448.807465 
	C220.558167,449.626526 211.127457,449.143738 201.708694,449.620972 
	C190.067719,450.210785 178.388931,451.409882 166.780106,450.960571 
	C149.494904,450.291595 136.398224,442.057190 128.582443,426.224396 
	C128.006042,425.056763 127.172478,423.899902 128.484711,421.622009 
	C156.742264,427.371429 185.920364,426.032959 214.982559,427.711365 
	C209.652802,426.878265 204.311615,426.111847 198.995331,425.200195 
	C179.797165,421.907806 160.471649,419.193176 141.451431,415.073029 
	C121.144974,410.674286 108.724167,396.916992 101.939217,377.726715 
	C101.469666,376.398651 100.757912,374.917328 102.211731,372.402344 
	C133.623306,389.776886 169.217300,393.350220 203.519836,401.746826 
	C198.542831,399.901489 193.602844,397.948029 188.582352,396.229767 
	C167.940613,389.165039 147.269058,382.184998 126.921677,374.295837 
	C103.630753,365.265442 89.121902,345.567749 88.698090,322.431793 
	C88.668556,320.819489 88.218735,319.111176 89.858391,316.878601 
	C104.314369,330.601929 120.559555,341.591248 138.725632,349.630676 
	C156.691208,357.581390 174.710754,365.401245 193.401642,371.911926 
	C188.107117,368.865265 182.804321,365.832886 177.519547,362.769409 
	C157.633423,351.241913 136.834488,341.275024 117.670219,328.534271 
	C101.725227,317.933777 91.779282,303.231537 90.516083,283.659790 
	C90.191170,278.625519 90.057800,273.373840 92.068054,268.618561 
	C93.621788,268.322418 94.251373,269.167786 94.755188,270.017487 
	C104.730072,286.839996 119.583153,298.617004 135.672775,308.916992 
	C173.910278,333.395081 213.956924,354.502563 255.753128,372.253052 
	C258.491119,373.415833 259.776917,375.056580 260.516144,377.979828 
	C264.566650,393.997284 275.334534,403.484039 290.724213,408.334778 
	C294.818085,409.625122 298.052307,408.878845 301.018707,405.570953 
	C305.220978,400.885010 308.906128,396.107635 309.053802,389.433075 
	C309.122498,386.326660 307.828796,384.413391 304.873962,383.451508 
	C301.322754,382.295471 297.696320,382.186890 294.010468,382.220001 
	C289.539612,382.260162 289.492004,387.112030 286.720917,388.927643 
	C279.745239,382.635071 279.799774,369.146027 286.738678,361.738464 
	C290.131989,358.115967 294.331604,355.837616 299.147888,354.653992 
	C301.232788,354.141571 303.567963,353.965302 304.922150,352.018433 
	C310.340851,344.228455 318.455994,343.017090 327.009430,342.806244 
	C337.496552,342.547729 347.429382,345.566193 357.440277,348.043182 
	C362.648621,349.331879 367.859161,350.137115 373.243561,350.053192 
	C377.844727,349.981476 378.617706,351.478363 376.159882,355.441864 
	C375.113800,357.128754 373.976624,358.918823 372.452667,360.117706 
	C368.869995,362.936218 369.563965,365.103119 372.393311,368.168365 
	C379.875214,376.274261 385.315460,385.773468 390.166931,395.137177 
	C389.308807,397.471985 387.225189,396.748749 385.976929,398.181610 
	C386.923157,401.246887 388.670929,404.038788 390.678833,406.656860 
	C391.896851,408.245026 393.560394,408.773346 395.574280,408.024628 
	C409.905975,402.696381 420.266266,393.527863 423.522156,378.051483 
	C424.300140,374.353271 425.697693,372.333679 429.077728,370.688507 
	C469.402252,351.061493 508.983795,330.063141 546.077332,304.734528 
	C559.779175,295.378479 571.879822,284.184631 580.176453,269.458282 
	C580.499207,268.885315 580.937683,268.364044 581.392151,267.884949 
	C581.595886,267.670135 581.972290,267.619171 582.921814,267.219910 
	C585.370117,274.964569 585.779175,282.662933 584.251099,290.950195 
M361.691193,367.809387 
	C359.426331,365.501160 356.122986,364.273804 354.486938,361.288849 
	C356.268585,358.517303 360.175049,359.859802 361.814880,356.723846 
	C355.893860,354.694092 349.953308,353.381561 343.960419,352.269562 
	C335.106384,350.626648 326.256683,348.945160 317.328857,351.886505 
	C311.235992,353.893890 310.385986,356.345398 313.358826,361.891998 
	C316.140472,367.081848 321.582855,368.443573 325.988708,371.249237 
	C333.337280,375.928925 333.421082,375.788422 326.478790,380.341583 
	C326.280212,380.471802 326.297424,380.930939 326.171356,381.393097 
	C330.075439,385.102142 333.725159,389.069336 334.027954,395.467163 
	C329.902893,394.014648 328.220184,389.313751 323.532227,389.319489 
	C323.234039,394.173767 324.731171,399.253448 321.093628,403.909271 
	C319.006104,400.710999 320.135620,396.827362 317.275726,394.129211 
	C315.018738,398.327026 312.846405,402.367401 310.461121,406.803802 
	C314.022736,407.653931 312.718781,411.044373 313.824463,413.094818 
	C318.669922,413.426270 321.104950,408.382446 325.774811,408.227905 
	C326.047577,410.596893 326.284943,412.658386 326.524811,414.741760 
	C331.997406,414.310760 333.030823,408.705292 336.799988,406.522095 
	C339.950989,409.372223 339.158844,414.578186 343.377167,416.307373 
	C347.815796,413.613617 348.105011,408.371674 350.841858,404.778564 
	C354.288940,406.082428 353.105804,409.968506 355.253265,411.741333 
	C358.838531,410.057129 358.134491,405.473816 361.077209,403.189880 
	C364.230713,404.747040 365.367249,409.050201 369.259125,409.033112 
	C370.918640,406.688354 368.901184,404.202454 370.105713,402.046661 
	C372.668945,401.091370 374.554718,404.496552 377.757324,402.809052 
	C374.344452,394.066467 367.527588,387.325317 362.618042,379.441040 
	C365.968231,377.956573 367.805328,381.932098 370.735260,379.613831 
	C369.061890,374.962708 365.196350,371.935913 361.691193,367.809387 
M327.293304,461.500031 
	C327.332428,488.480652 327.414642,515.461426 327.355133,542.441772 
	C327.347839,545.744141 328.267090,547.981628 331.049866,549.980103 
	C342.502777,558.205261 342.440033,558.292664 354.118103,550.145264 
	C354.254700,550.049988 354.384430,549.942139 354.529480,549.862183 
	C357.773499,548.073425 359.023376,545.416992 358.948822,541.646667 
	C358.757843,531.990784 358.907837,522.328369 358.906586,512.668518 
	C358.903595,489.518188 358.812195,466.367401 358.952942,443.217987 
	C358.980225,438.729889 357.532074,436.902435 352.906769,437.104187 
	C346.590668,437.379730 340.240417,437.371704 333.927002,437.049866 
	C329.046112,436.800995 326.901733,438.317413 327.244904,443.517670 
	C327.616974,449.154968 327.306519,454.837341 327.293304,461.500031 
M288.990540,437.188416 
	C285.827789,437.436066 286.163635,439.842651 285.979675,441.987274 
	C285.053009,452.790863 285.919220,463.633331 285.351746,474.431793 
	C284.056305,499.083679 295.187225,518.015320 312.349670,534.266296 
	C313.479614,535.336243 314.538025,536.807190 316.472687,536.445068 
	C316.599945,536.043396 316.786072,535.729309 316.786804,535.414856 
	C316.859589,504.091156 316.900177,472.767395 317.005035,441.443848 
	C317.016052,438.149292 315.450623,437.092102 312.386932,437.124756 
	C304.889771,437.204742 297.391022,437.135223 288.990540,437.188416 
M400.877350,440.903351 
	C400.994415,437.635651 398.926056,437.147705 396.293182,437.168945 
	C390.132294,437.218658 383.970581,437.196259 377.809357,437.172394 
	C369.823761,437.141479 369.300232,437.573669 369.288757,445.616547 
	C369.248444,473.924072 369.252930,502.231659 369.284271,530.539246 
	C369.286011,532.115234 368.746063,533.908569 370.311188,535.195496 
	C372.443420,535.281677 373.646454,533.758911 374.861145,532.464478 
	C378.389709,528.703979 382.139404,525.087341 385.208710,520.971619 
	C394.740631,508.189941 401.498383,494.403168 400.921051,477.783539 
	C400.505066,465.809113 400.874725,453.807373 400.877350,440.903351 
M353.662201,608.628967 
	C352.635956,599.228760 351.665161,589.821899 350.552460,580.431946 
	C350.179260,577.282410 348.832550,575.226501 345.262756,577.399963 
	C343.766205,578.311096 342.232391,578.872864 340.588348,577.876099 
	C335.967743,575.074707 334.657684,577.698303 334.424194,581.720825 
	C333.817810,592.167419 332.593903,602.547729 331.439972,612.941345 
	C331.115143,615.867004 329.476776,619.071228 330.874359,621.750549 
	C333.915253,627.580261 338.193756,632.571533 342.877014,637.532104 
	C350.439514,629.159912 357.886719,621.571777 353.662201,608.628967 
M313.051178,621.266602 
	C316.341095,619.885315 319.839874,619.188416 320.357452,614.361450 
	C321.912445,599.859070 323.910553,585.404541 325.685974,570.925171 
	C325.924133,568.982910 326.392517,566.652954 323.839478,565.854431 
	C320.889160,564.931641 320.175995,567.440735 319.396973,569.394409 
	C315.279968,579.719482 311.754425,590.320312 306.990295,600.333801 
	C303.647949,607.358948 304.938934,613.319946 307.761169,619.754150 
	C308.875946,622.295593 310.260406,622.468506 313.051178,621.266602 
M375.646118,593.757568 
	C372.257111,585.272339 368.889923,576.778259 365.456757,568.310913 
	C364.910919,566.964661 364.328156,565.350220 362.317688,565.780884 
	C360.483124,566.173828 359.359955,567.335083 359.386200,569.268555 
	C359.406311,570.752197 359.595764,572.240234 359.800446,573.713745 
	C361.558838,586.373718 363.831207,598.989685 364.893860,611.706970 
	C365.393768,617.689697 368.026611,620.221375 373.108643,621.758728 
	C375.453339,622.468079 376.693451,622.120300 377.757690,619.742004 
	C380.618713,613.348755 382.656738,607.083130 378.482208,600.413940 
	C377.351532,598.607666 376.772125,596.456299 375.646118,593.757568 
M388.374664,577.035583 
	C384.101593,569.471436 379.828552,561.907288 375.569977,554.368774 
	C371.284332,556.243164 372.156403,558.729919 373.226776,561.325500 
	C377.652252,572.056824 382.082916,582.786194 386.445679,593.543091 
	C389.583344,601.279358 391.933136,602.012207 399.423096,597.218628 
	C396.438629,590.410461 392.527588,584.075500 388.374664,577.035583 
M300.023804,590.592529 
	C304.117279,580.433044 308.231293,570.281738 312.284271,560.106140 
	C312.966949,558.392151 313.591644,556.327759 311.532715,555.218201 
	C309.411743,554.075134 308.610107,556.184082 307.850830,557.526062 
	C300.658447,570.237915 293.527893,582.984741 286.415466,595.741577 
	C286.124451,596.263489 286.189728,596.984009 286.101562,597.533936 
	C293.846252,602.017517 295.889679,601.359070 298.822845,593.613281 
	C299.116669,592.837341 299.431274,592.069275 300.023804,590.592529 
M305.712067,361.463379 
	C296.121521,360.920929 288.205627,367.509338 289.894470,375.274384 
	C298.052765,371.260162 306.724609,371.651245 315.631805,372.253174 
	C311.543335,369.433472 308.905762,365.680389 305.712067,361.463379 
z"/>
<path fill="#000000" opacity="1.000000" stroke="none" 
	d="
M320.566406,362.454102 
	C319.470154,361.272491 317.955414,360.763397 318.465942,358.489624 
	C325.102722,356.675201 331.979614,355.747711 339.152740,357.019562 
	C336.219147,359.398163 333.466797,361.597870 330.860626,364.104248 
	C327.552307,367.285858 323.837738,365.793732 320.566406,362.454102 
z"/>
<path fill="#000000" opacity="1.000000" stroke="none" 
	d="
M330.058777,523.996887 
	C330.057007,519.334900 330.075104,515.169922 330.030914,511.005676 
	C329.991089,507.252228 332.361816,506.792297 335.359253,506.804138 
	C338.270721,506.815613 340.209991,507.543243 340.177032,510.962006 
	C340.114410,517.458252 340.156006,523.956116 340.210968,530.452759 
	C340.227844,532.446960 340.143097,534.952698 342.916840,534.917664 
	C345.407379,534.886169 346.639923,532.950012 346.629791,530.447571 
	C346.593353,521.460449 346.567963,512.472961 346.451172,503.486786 
	C346.411926,500.464996 344.921387,498.049591 342.562988,496.246002 
	C333.047760,488.969238 328.156219,480.074341 330.381042,467.506104 
	C331.463837,461.389404 330.493225,454.884369 330.228333,448.564484 
	C330.097382,445.440735 331.078217,443.819031 334.371765,443.847931 
	C340.368408,443.900574 346.366913,443.929596 352.362518,443.834106 
	C355.595123,443.782623 356.913055,445.351074 356.847229,448.396545 
	C356.696014,455.386871 356.583954,462.378571 356.360443,469.366638 
	C356.229187,473.470673 352.985992,472.128754 350.749725,472.307800 
	C348.430634,472.493500 346.362396,472.213745 346.506622,468.973694 
	C346.669495,465.314728 346.596039,461.645691 346.660065,457.981659 
	C346.700043,455.692261 346.101288,454.031738 343.362457,454.076904 
	C340.609589,454.122345 340.125854,455.916565 340.131592,458.121857 
	C340.147156,464.119019 340.219299,470.116638 340.167175,476.113159 
	C340.144714,478.695526 341.248383,480.751160 343.177765,482.140076 
	C354.796631,490.504333 358.188599,501.863129 356.467407,515.661072 
	C355.733856,521.541565 356.554047,527.625427 356.783997,533.612366 
	C356.894958,536.501587 356.162750,538.863770 353.613953,540.467102 
	C352.909882,540.909973 352.250183,541.423096 351.565552,541.897278 
	C341.453552,548.901001 344.719055,549.368225 333.880981,541.919556 
	C330.898102,539.869446 329.688385,537.473694 329.902344,533.987122 
	C330.095978,530.831665 330.012726,527.659241 330.058777,523.996887 
z"/>
<path fill="#000000" opacity="1.000000" stroke="none" 
	d="
M298.068359,477.942444 
	C290.298676,472.423706 288.015717,465.331299 288.624054,456.195099 
	C289.555420,442.207581 286.989716,444.000946 300.939392,443.880005 
	C314.367798,443.763580 314.414917,443.821777 314.312592,457.045105 
	C314.284637,460.654785 314.830994,464.323486 313.870514,467.869568 
	C306.708405,467.832916 304.801758,466.111237 304.752502,459.853119 
	C304.743286,458.687286 304.705719,457.521515 304.708344,456.355774 
	C304.713440,454.056244 303.283356,453.687592 301.380829,453.710205 
	C299.633972,453.730988 298.491364,454.220551 298.384308,456.190460 
	C298.092255,461.564606 297.686890,466.940430 302.979675,470.537811 
	C312.791260,477.206421 315.950714,486.409424 314.456055,498.050934 
	C313.593597,504.768311 314.341400,511.690002 314.321045,518.519592 
	C314.316284,520.118652 314.616669,521.807434 313.469818,523.562744 
	C309.639099,522.204895 307.782440,518.856934 305.622498,516.141296 
	C300.859100,510.152313 296.652802,503.723602 291.990234,497.650116 
	C287.880676,492.296997 288.925507,486.461517 289.281067,480.529144 
	C295.515076,480.972504 297.912292,483.201935 298.288696,488.481140 
	C298.608307,492.963806 299.010803,493.666290 304.397858,498.810638 
	C305.016541,490.852417 306.286194,483.230438 298.068359,477.942444 
z"/>
<path fill="#000000" opacity="1.000000" stroke="none" 
	d="
M371.776794,502.087860 
	C371.786804,492.300293 372.853271,490.867096 380.594147,489.823425 
	C382.295929,492.051697 380.358490,495.172455 382.335785,497.343414 
	C387.937653,495.267822 388.461365,489.572266 386.948639,480.167084 
	C383.154053,479.542480 379.961151,481.485474 376.689484,482.882355 
	C373.219086,484.363983 371.774261,483.484192 371.817535,479.624634 
	C371.931488,469.467621 371.965637,459.307770 371.845062,449.151245 
	C371.803040,445.611603 373.036743,443.853455 376.712524,443.895874 
	C382.373230,443.961212 388.035919,443.847656 393.697113,443.891876 
	C394.648956,443.899292 396.230438,444.060028 396.448029,444.590271 
	C398.270325,449.030579 397.258911,453.711578 397.176514,458.296753 
	C397.131317,460.811676 394.735657,461.201294 392.900604,461.856384 
	C389.731384,462.987762 387.695587,462.382721 387.801086,458.424225 
	C387.853516,456.457123 387.990906,454.146790 384.950531,454.200256 
	C382.008698,454.251984 381.979248,456.484009 382.099030,458.483948 
	C382.332550,462.383179 381.275574,466.405670 383.069427,470.631439 
	C387.484802,469.571899 391.768585,468.543945 397.177032,467.246094 
	C396.014862,478.980377 400.660034,490.463531 392.175873,500.693665 
	C386.875977,507.084229 382.492981,514.232239 376.659149,520.216675 
	C375.536285,521.368530 374.683136,522.939575 371.776367,523.226135 
	C371.776367,516.284302 371.776367,509.428925 371.776794,502.087860 
z"/>
</svg>